<svg xmlns="http://www.w3.org/2000/svg" version="1.1" xmlns:xlink="http://www.w3.org/1999/xlink" xmlns:svgjs="http://svgjs.dev/svgjs" width="1440" height="560" preserveAspectRatio="none" viewBox="0 0 1440 560"><g mask="url(&quot;#SvgjsMask1012&quot;)" fill="none"><rect width="1440" height="560" x="0" y="0" fill="rgba(14, 47, 68, 1)"></rect><path d="M0,298.257C55.532,296.454,99.517,256.827,149.621,232.814C207.992,204.839,285.508,201.12,318.67,145.532C351.95,89.746,338.397,15.446,315.58,-45.374C294.974,-100.3,240.557,-130.991,199.29,-172.686C161.181,-211.19,129.26,-253.576,82.478,-280.893C24.595,-314.692,-36.158,-358.863,-102.438,-348.871C-170.157,-338.662,-218.142,-279.624,-263.902,-228.672C-310.36,-176.944,-371.435,-122.394,-368.215,-52.941C-364.983,16.767,-288.737,56.587,-248.047,113.279C-216.535,157.184,-199.32,210.428,-155.997,242.736C-110.837,276.414,-56.305,300.085,0,298.257" fill="#0b2636"></path><path d="M1440 975.137C1529.492 997.0260000000001 1627.153 1020.034 1710.723 981.2529999999999 1797.37 941.044 1851.158 852.7819999999999 1890.873 765.907 1930.598 679.009 1963.827 580.074 1935.892 488.701 1908.905 400.428 1805.286 365.575 1746.6779999999999 294.262 1685.826 220.21800000000002 1675.294 97.61700000000002 1585.959 62.90899999999999 1496.97 28.335000000000036 1397.959 83.12700000000001 1312.434 125.55000000000001 1237.2069999999999 162.865 1189.429 232.33499999999998 1128.308 289.917 1059.013 355.199 951.432 393.985 929.231 486.563 906.963 579.418 956.485 679.401 1017.239 753.068 1071.9270000000001 819.38 1166.73 826.8399999999999 1242.825 866.8109999999999 1310.586 902.405 1365.651 956.952 1440 975.137" fill="#113852"></path></g><defs><mask id="SvgjsMask1012"><rect width="1440" height="560" fill="#ffffff"></rect></mask></defs></svg>